<svg version="1.1" id="Layer_1" xmlns="http://www.w3.org/2000/svg" xmlns:xlink="http://www.w3.org/1999/xlink" x="0px" y="0px"
	 width="100%" viewBox="0 0 50 58" enable-background="new 0 0 50 58" xml:space="preserve">
<path fill="#C3CFDF" opacity="1.000000" stroke="none" 
	d="
M4.000000,1.000000 
	C18.020895,1.000000 32.041790,1.000000 46.531490,1.410931 
	C47.991226,6.963138 48.245701,11.802852 41.709148,13.695927 
	C31.811737,13.241067 22.223694,13.041463 12.634968,13.000134 
	C11.996586,12.997381 11.353024,14.196478 10.426269,14.832249 
	C9.758474,14.852007 9.376282,14.876087 8.961449,14.560507 
	C4.790157,10.744315 2.918134,6.422771 4.000000,1.000000 
z"/>
<path fill="#CB2228" opacity="1.000000" stroke="none" 
	d="
M1.000000,36.000000 
	C1.000000,30.977907 1.000000,25.955816 1.351550,20.646309 
	C4.121178,19.082878 6.539256,17.806862 9.291670,16.555996 
	C10.067469,16.661287 10.508931,16.741428 10.958550,17.303101 
	C10.977818,20.573364 10.815963,23.376732 11.050240,26.146593 
	C11.270442,28.750071 11.908882,31.318172 12.543547,34.268978 
	C13.189790,36.105579 13.655789,37.575043 13.744640,38.873161 
	C11.442910,38.501110 9.518329,38.300400 7.461317,38.179337 
	C7.328885,38.258976 7.036700,38.359734 6.803624,38.230099 
	C6.392753,38.101822 6.214957,38.103184 5.660505,38.000320 
	C4.801020,37.702930 4.318192,37.509769 3.755169,37.045799 
	C2.783317,36.516663 1.891659,36.258331 1.000000,36.000000 
z"/>
<path fill="#CB2228" opacity="1.000000" stroke="none" 
	d="
M51.000000,20.000000 
	C51.000000,26.354399 51.000000,32.708797 50.555634,39.531662 
	C47.739464,40.005447 45.367657,40.010765 42.998867,39.545788 
	C43.007668,31.869429 43.013454,24.663363 43.375229,17.386660 
	C46.154144,18.210680 48.577072,19.105341 51.000000,20.000000 
z"/>
<path fill="#000000" opacity="1.000000" stroke="none" 
	d="
M41.000000,59.000000 
	C34.312355,59.000000 27.624710,59.000000 20.179001,58.867508 
	C19.691692,57.537933 19.962446,56.340855 20.552757,55.203365 
	C21.299635,55.181160 21.726955,55.099365 22.508537,55.030418 
	C23.555241,55.169468 24.247686,55.295666 25.211975,55.613609 
	C27.106503,54.853691 28.729185,53.902035 30.649479,52.935410 
	C33.582954,54.845776 35.467934,53.572906 37.489532,51.389824 
	C38.496288,51.365295 39.169815,51.413567 40.016220,51.682785 
	C40.588436,52.286819 40.987770,52.669907 41.383797,53.480804 
	C41.253654,55.605747 41.126827,57.302872 41.000000,59.000000 
z"/>
<path fill="#AEBCCD" opacity="1.000000" stroke="none" 
	d="
M51.000000,19.530624 
	C48.577072,19.105341 46.154144,18.210680 43.212540,17.129383 
	C41.785378,16.823133 40.876892,16.703520 39.961838,16.602112 
	C39.955273,16.620319 39.977554,16.563337 40.064922,16.324944 
	C40.188107,15.751282 40.223923,15.416016 40.537682,15.063414 
	C41.216534,14.693519 41.617447,14.340960 42.018356,13.988400 
	C48.245701,11.802852 47.991226,6.963138 47.000149,1.410931 
	C48.307335,1.000000 49.614666,1.000000 51.000000,1.000000 
	C51.000000,7.020264 51.000000,13.040756 51.000000,19.530624 
M41.308174,16.510059 
	C41.308174,16.510059 41.587315,16.653030 41.587315,16.653030 
	C41.587315,16.653030 41.534409,16.348143 41.308174,16.510059 
z"/>
<path fill="#AEBCCD" opacity="1.000000" stroke="none" 
	d="
M8.957334,16.530846 
	C6.539256,17.806862 4.121178,19.082878 1.351550,20.179447 
	C1.000000,14.302325 0.935630,8.602927 1.087974,2.909329 
	C1.105447,2.256300 2.333333,1.635658 3.500000,1.000000 
	C2.918134,6.422771 4.790157,10.744315 8.963522,14.834080 
	C8.984600,15.808491 8.970966,16.169668 8.957334,16.530846 
z"/>
<path fill="#8F7BA3" opacity="1.000000" stroke="none" 
	d="
M3.835363,37.316605 
	C4.318192,37.509769 4.801020,37.702930 5.769828,38.198380 
	C6.460739,38.742313 6.719952,38.886219 7.029119,39.279091 
	C7.011355,40.318775 6.997918,41.011749 6.887334,42.082039 
	C2.745355,47.208244 2.741746,52.548153 6.839017,55.389938 
	C6.932077,56.133167 6.967783,56.560116 7.006819,57.322548 
	C7.006766,58.105358 7.003383,58.552677 7.000000,59.000000 
	C5.034360,59.000000 3.068720,59.000000 1.000000,59.000000 
	C1.000000,52.646290 1.000000,46.292187 1.342298,39.465412 
	C2.452959,38.626205 3.221321,38.259674 3.913823,37.758987 
	C3.837961,37.624832 3.835363,37.316605 3.835363,37.316605 
z"/>
<path fill="#E8BB7E" opacity="1.000000" stroke="none" 
	d="
M51.000000,49.000000 
	C51.000000,52.240101 51.000000,55.480202 51.000000,59.000000 
	C48.666828,59.000000 46.328148,59.000000 43.494507,58.573231 
	C42.995148,56.439056 42.990746,54.731647 43.128159,52.705120 
	C43.513062,51.272381 43.756157,50.158764 44.436607,49.031570 
	C46.915981,49.012001 48.957989,49.006001 51.000000,49.000000 
z"/>
<path fill="#000000" opacity="1.000000" stroke="none" 
	d="
M51.000000,46.000000 
	C51.000000,46.000000 51.000000,46.500000 50.579109,47.009155 
	C47.142174,47.542480 44.126129,47.566650 40.820969,47.432655 
	C39.016159,47.204170 37.500462,47.133850 35.837784,46.801735 
	C35.665176,46.341484 35.639557,46.143028 35.732704,45.896988 
	C35.851475,45.849411 35.989025,45.633633 36.436031,45.608471 
	C37.755116,45.420334 38.627197,45.257359 39.504028,45.123444 
	C39.508778,45.152500 39.530094,45.207397 40.005081,45.219620 
	C43.986713,45.487896 47.493355,45.743950 51.000000,46.000000 
z"/>
<path fill="#9485AF" opacity="1.000000" stroke="none" 
	d="
M7.463183,59.000000 
	C7.003383,58.552677 7.006766,58.105358 7.339327,57.362782 
	C8.111734,57.025589 8.554962,56.983650 9.436474,57.004707 
	C12.898393,56.306816 16.718168,59.054527 19.244141,55.017941 
	C19.661242,55.045010 19.828283,55.052563 20.044888,55.109200 
	C20.094448,55.158287 20.233200,55.143776 20.233200,55.143776 
	C19.962446,56.340855 19.691692,57.537933 19.710468,58.867508 
	C15.975455,59.000000 11.950912,59.000000 7.463183,59.000000 
z"/>
<path fill="#FFDE96" opacity="1.000000" stroke="none" 
	d="
M41.110085,47.590820 
	C44.126129,47.566650 47.142174,47.542480 50.579109,47.259155 
	C51.000000,47.444447 51.000000,47.888889 51.000000,48.666668 
	C48.957989,49.006001 46.915981,49.012001 44.037117,49.015579 
	C42.134209,49.018490 41.068161,49.023819 39.626678,49.017960 
	C38.500160,49.013767 37.749073,49.020760 36.668388,49.016724 
	C35.899311,48.991165 35.459839,48.976635 35.016834,48.691292 
	C35.013565,48.239643 35.013832,48.058807 35.397938,47.825386 
	C37.557880,47.712143 39.333981,47.651482 41.110085,47.590820 
z"/>
<path fill="#DF1920" opacity="1.000000" stroke="none" 
	d="
M42.995850,40.016083 
	C45.367657,40.010765 47.739464,40.005447 50.555634,40.000065 
	C51.000000,40.444447 51.000000,40.888889 50.567734,41.576332 
	C47.797924,41.756973 45.460384,41.694611 43.109047,41.443657 
	C43.095253,41.255062 43.028355,40.880440 43.019413,40.664383 
	C43.010471,40.448322 42.995850,40.016083 42.995850,40.016083 
z"/>
<path fill="#FFDB93" opacity="1.000000" stroke="none" 
	d="
M42.986343,53.024239 
	C42.990746,54.731647 42.995148,56.439056 42.999775,58.573231 
	C42.555553,59.000000 42.111111,59.000000 41.333332,59.000000 
	C41.126827,57.302872 41.253654,55.605747 41.650486,53.498554 
	C42.275772,53.067074 42.631062,53.045658 42.986343,53.024239 
z"/>
<path fill="#656464" opacity="1.000000" stroke="none" 
	d="
M51.000000,45.666668 
	C47.493355,45.743950 43.986713,45.487896 40.292313,44.962891 
	C41.059124,44.445164 42.013695,44.196396 43.414242,43.962952 
	C46.240147,43.985519 48.620071,43.992760 51.000000,44.000000 
	C51.000000,44.444447 51.000000,44.888889 51.000000,45.666668 
z"/>
<path fill="#445C5C" opacity="1.000000" stroke="none" 
	d="
M43.122841,41.632252 
	C45.460384,41.694611 47.797924,41.756973 50.567734,41.909668 
	C51.000000,42.000000 51.000000,42.500000 50.555428,42.749931 
	C47.737652,42.998848 45.364449,42.997829 43.018131,42.655106 
	C43.070957,42.086353 43.096897,41.859303 43.122841,41.632252 
z"/>
<path fill="#555555" opacity="1.000000" stroke="none" 
	d="
M42.991249,42.996811 
	C45.364449,42.997829 47.737652,42.998848 50.555428,42.999931 
	C51.000000,43.000000 51.000000,43.500000 51.000000,43.750000 
	C48.620071,43.992760 46.240147,43.985519 43.422127,43.725605 
	C42.984035,43.472931 42.991249,42.996811 42.991249,42.996811 
z"/>
<path fill="#D61212" opacity="1.000000" stroke="none" 
	d="
M1.000000,36.333328 
	C1.891659,36.258331 2.783317,36.516663 3.755169,37.045799 
	C3.835363,37.316605 3.837961,37.624832 3.540404,37.688545 
	C2.495231,37.834839 1.747616,37.917419 1.000000,38.000000 
	C1.000000,37.555553 1.000000,37.111111 1.000000,36.333328 
z"/>
<path fill="#8688B5" opacity="1.000000" stroke="none" 
	d="
M1.000000,38.250000 
	C1.747616,37.917419 2.495231,37.834839 3.616266,37.822701 
	C3.221321,38.259674 2.452959,38.626205 1.342298,38.996368 
	C1.000000,39.000000 1.000000,38.500000 1.000000,38.250000 
z"/>
<path fill="#8D77A0" opacity="1.000000" stroke="none" 
	d="
M41.709148,13.695928 
	C41.617447,14.340960 41.216534,14.693519 40.041252,15.036978 
	C29.748549,14.964108 20.230209,14.900339 10.711870,14.836571 
	C11.353024,14.196478 11.996586,12.997381 12.634968,13.000134 
	C22.223694,13.041463 31.811737,13.241067 41.709148,13.695928 
z"/>
<path fill="#7F70AA" opacity="1.000000" stroke="none" 
	d="
M10.426269,14.832249 
	C20.230209,14.900339 29.748549,14.964108 39.763313,15.054313 
	C40.223923,15.416016 40.188107,15.751282 39.891373,16.425980 
	C39.630459,16.765409 39.270695,16.938362 38.780209,16.865482 
	C30.188824,16.819189 22.087927,16.845774 13.722322,16.855261 
	C13.289824,16.894009 13.122035,16.949852 12.931043,16.992176 
	C12.907840,16.978653 12.915206,16.925447 12.811000,16.749931 
	C12.207769,16.478216 11.708746,16.382013 11.161737,16.427906 
	C11.113753,16.570002 10.950394,16.821571 10.950394,16.821571 
	C10.508931,16.741428 10.067469,16.661287 9.291670,16.555996 
	C8.970966,16.169668 8.984600,15.808491 8.996161,15.173740 
	C9.376282,14.876087 9.758474,14.852007 10.426269,14.832249 
z"/>
<path fill="#E8BB7E" opacity="1.000000" stroke="none" 
	d="
M14.121790,39.044506 
	C13.655789,37.575043 13.189790,36.105579 12.652883,33.834549 
	C12.670162,30.021765 12.758349,27.010553 13.302771,23.999596 
	C15.273299,23.957031 16.787592,23.914207 18.700306,23.960236 
	C22.997261,24.974775 22.243608,22.444347 21.949047,19.930492 
	C21.979397,19.414755 21.989338,19.208345 21.999653,18.753366 
	C22.000027,18.504795 22.001068,18.007652 22.445154,18.005484 
	C25.259474,18.002344 27.629709,18.001371 30.000074,18.252827 
	C30.001539,18.673534 30.002871,18.841814 30.023098,19.328407 
	C30.055588,19.858873 30.069180,20.071024 30.076553,20.678648 
	C29.374821,24.723745 31.812771,24.072227 33.947281,24.349257 
	C34.300304,29.546247 34.624142,34.271271 35.148064,39.019413 
	C35.348148,39.042534 35.745224,39.104107 35.754929,39.277603 
	C35.764637,39.451103 35.763603,39.798641 35.404289,39.823097 
	C34.590946,40.820023 34.136917,41.792500 33.472607,42.842964 
	C32.874168,43.133186 32.486008,43.345428 31.727810,43.585136 
	C30.876760,43.717896 30.395752,43.823185 29.562557,43.962593 
	C27.513206,44.570530 25.816042,45.144348 24.091030,45.431770 
	C23.720335,44.727451 23.377487,44.309532 22.810507,43.878468 
	C22.586372,43.865322 22.137409,43.873528 21.849632,43.836109 
	C21.176146,43.766613 20.790432,43.734535 20.129879,43.532692 
	C19.264202,42.743420 18.673365,42.123913 18.024092,41.175575 
	C16.737360,40.478859 15.509063,40.110981 14.236101,39.569572 
	C14.191435,39.396042 14.121790,39.044506 14.121790,39.044506 
M23.632608,37.989166 
	C30.459539,37.995430 30.602140,37.851578 29.315453,32.406979 
	C26.929092,32.406979 24.579704,32.406979 21.677881,32.406979 
	C22.095316,34.566486 22.418184,36.236786 23.632608,37.989166 
z"/>
<path fill="#C60819" opacity="1.000000" stroke="none" 
	d="
M12.846535,23.999340 
	C12.758349,27.010553 12.670162,30.021765 12.472640,33.467407 
	C11.908882,31.318172 11.270442,28.750071 11.050240,26.146593 
	C10.815963,23.376732 10.977818,20.573364 10.958550,17.303101 
	C10.950394,16.821571 11.113753,16.570002 11.429298,16.575529 
	C12.134964,16.695854 12.525085,16.810652 12.915206,16.925447 
	C12.915206,16.925447 12.907840,16.978653 12.850887,17.325672 
	C12.828987,18.126545 12.864038,18.580400 12.807233,19.440487 
	C12.759095,21.230925 12.802815,22.615133 12.846535,23.999340 
z"/>
<path fill="#9095C3" opacity="1.000000" stroke="none" 
	d="
M14.280767,39.743103 
	C15.509063,40.110981 16.737360,40.478859 17.686619,41.191299 
	C16.970802,41.638767 16.534021,41.741673 15.657307,41.783035 
	C13.446200,41.765636 11.675031,41.809780 9.546276,41.765537 
	C8.453956,41.686340 7.719218,41.695530 6.984480,41.704720 
	C6.997918,41.011749 7.011355,40.318775 7.032082,39.136387 
	C7.039371,38.646969 7.036700,38.359734 7.036700,38.359734 
	C7.036700,38.359734 7.328885,38.258976 7.656310,38.522480 
	C10.082747,39.105022 12.181757,39.424061 14.280767,39.743103 
z"/>
<path fill="#D51414" opacity="1.000000" stroke="none" 
	d="
M14.236101,39.569572 
	C12.181757,39.424061 10.082747,39.105022 7.788742,38.442841 
	C9.518329,38.300400 11.442910,38.501110 13.744640,38.873161 
	C14.121790,39.044506 14.191435,39.396042 14.236101,39.569572 
z"/>
<path fill="#8688B5" opacity="1.000000" stroke="none" 
	d="
M6.803624,38.230099 
	C7.036700,38.359734 7.039371,38.646969 7.036408,38.789673 
	C6.719952,38.886219 6.460739,38.742313 6.146484,38.302605 
	C6.214957,38.103184 6.392753,38.101822 6.803624,38.230099 
z"/>
<path fill="#E01920" opacity="1.000000" stroke="none" 
	d="
M42.998867,39.545788 
	C42.995850,40.016083 43.010471,40.448322 42.790253,40.593445 
	C42.180885,40.459057 41.791737,40.179546 41.350391,39.441406 
	C41.338470,32.694599 41.378742,26.406412 41.531914,19.968187 
	C41.503498,19.512232 41.362179,19.206316 40.901581,18.821253 
	C40.379135,18.824652 40.175968,18.907198 39.964188,19.002562 
	C39.955578,19.015377 39.932552,18.994730 39.835510,18.743307 
	C39.614655,18.361694 39.490837,18.231506 39.507103,17.717899 
	C39.754261,17.084288 39.861332,16.834097 39.968403,16.583906 
	C40.876892,16.703520 41.785378,16.823133 42.856552,17.200024 
	C43.013454,24.663363 43.007668,31.869429 42.998867,39.545788 
z"/>
<path fill="#E8BB7E" opacity="1.000000" stroke="none" 
	d="
M35.020367,48.962105 
	C35.459839,48.976635 35.899311,48.991165 36.677055,49.422859 
	C37.062317,50.380886 37.109306,50.921757 37.156300,51.462624 
	C35.467934,53.572906 33.582954,54.845776 30.613514,52.934212 
	C30.279936,52.947979 30.167187,52.853001 30.281012,52.625099 
	C30.229519,51.929405 30.064201,51.461620 29.916569,50.722900 
	C29.886448,50.096478 29.838642,49.740986 30.215958,49.280396 
	C32.100842,49.104233 33.560604,49.033169 35.020367,48.962105 
z"/>
<path fill="#732744" opacity="1.000000" stroke="none" 
	d="
M29.898884,50.993832 
	C30.064201,51.461620 30.229519,51.929405 29.763496,52.627319 
	C27.734816,53.712254 26.337475,54.567059 24.940132,55.421867 
	C24.247686,55.295666 23.555241,55.169468 22.533718,54.625404 
	C22.231825,53.122902 22.259008,52.038269 22.453484,51.000450 
	C22.620777,51.047260 22.949989,51.164169 23.053326,51.308315 
	C23.457666,51.400467 23.758675,51.348476 24.475090,51.253143 
	C26.559961,51.137810 28.229422,51.065823 29.898884,50.993832 
z"/>
<path fill="#E8BB7E" opacity="1.000000" stroke="none" 
	d="
M43.128159,52.705116 
	C42.631062,53.045658 42.275772,53.067074 41.653793,53.070740 
	C40.987770,52.669907 40.588436,52.286819 40.062943,51.278168 
	C39.958557,50.111450 39.980331,49.570297 40.002106,49.029148 
	C41.068161,49.023819 42.134209,49.018490 43.599754,49.029152 
	C43.756157,50.158764 43.513062,51.272381 43.128159,52.705116 
z"/>
<path fill="#65223B" opacity="1.000000" stroke="none" 
	d="
M25.211975,55.613605 
	C26.337475,54.567059 27.734816,53.712254 29.649673,52.855225 
	C30.167187,52.853001 30.279936,52.947979 30.315903,52.949177 
	C28.729185,53.902035 27.106503,54.853691 25.211975,55.613605 
z"/>
<path fill="#835F82" opacity="1.000000" stroke="none" 
	d="
M22.286192,50.953636 
	C22.259008,52.038269 22.231825,53.122902 22.179459,54.612549 
	C21.726955,55.099365 21.299635,55.181160 20.552757,55.203365 
	C20.233200,55.143776 20.094448,55.158287 20.088879,54.686928 
	C20.206190,53.665062 20.329073,53.114552 20.584671,52.410450 
	C20.790226,51.855923 20.863066,51.454987 21.112385,50.863953 
	C21.571592,50.477966 21.854322,50.282078 22.166534,50.304390 
	C22.196016,50.522594 22.286192,50.953636 22.286192,50.953636 
z"/>
<path fill="#EABC7E" opacity="1.000000" stroke="none" 
	d="
M39.626675,49.017960 
	C39.980331,49.570297 39.958557,50.111450 39.890060,51.057220 
	C39.169815,51.413567 38.496288,51.365295 37.489532,51.389824 
	C37.109306,50.921757 37.062317,50.380886 37.006657,49.433884 
	C37.749073,49.020760 38.500160,49.013767 39.626675,49.017960 
z"/>
<path fill="#8690BC" opacity="1.000000" stroke="none" 
	d="
M41.421291,16.429100 
	C41.534409,16.348143 41.587315,16.653030 41.587315,16.653030 
	C41.587315,16.653030 41.308174,16.510059 41.421291,16.429100 
z"/>
<path fill="#B59693" opacity="1.000000" stroke="none" 
	d="
M39.270695,16.938362 
	C39.270695,16.938362 39.630459,16.765409 39.804008,16.664373 
	C39.977554,16.563337 39.955273,16.620319 39.961838,16.602112 
	C39.861332,16.834097 39.754261,17.084288 39.494003,17.713326 
	C39.340824,18.092173 39.327366,18.119461 39.297836,17.824924 
	C39.269104,17.333044 39.269901,17.135702 39.270695,16.938362 
z"/>
<path fill="#64213A" opacity="1.000000" stroke="none" 
	d="
M20.451956,52.564045 
	C20.329073,53.114552 20.206190,53.665062 20.039318,54.637840 
	C19.828283,55.052563 19.661242,55.045010 18.790558,55.019176 
	C15.057690,55.000847 12.028463,55.000805 8.630018,55.003902 
	C7.767754,55.029243 7.274708,55.051449 6.781662,55.073654 
	C2.741746,52.548153 2.745355,47.208244 6.887335,42.082039 
	C7.719218,41.695530 8.453956,41.686340 9.801508,42.056458 
	C12.308629,42.238697 14.202935,42.041637 16.097242,41.844574 
	C16.534021,41.741673 16.970802,41.638767 17.745054,41.520134 
	C18.673365,42.123913 19.264202,42.743420 20.104132,44.007431 
	C20.457169,46.795807 20.561111,48.939682 20.567467,51.318962 
	C20.463903,51.890926 20.457930,52.227486 20.451956,52.564045 
z"/>
<path fill="#621C35" opacity="1.000000" stroke="none" 
	d="
M6.839017,55.389938 
	C7.274708,55.051449 7.767754,55.029243 8.630226,55.327465 
	C8.999166,56.079163 8.998679,56.510437 8.998191,56.941711 
	C8.554962,56.983650 8.111734,57.025589 7.335998,57.027298 
	C6.967783,56.560116 6.932077,56.133167 6.839017,55.389938 
z"/>
<path fill="#4C4A4A" opacity="1.000000" stroke="none" 
	d="
M41.402584,39.900032 
	C41.791737,40.179546 42.180885,40.459057 42.799194,40.809505 
	C43.028355,40.880440 43.095253,41.255062 43.109047,41.443657 
	C43.096897,41.859303 43.070957,42.086353 43.018131,42.655106 
	C42.991249,42.996811 42.984035,43.472931 42.976151,43.710281 
	C42.013695,44.196396 41.059124,44.445164 39.817322,44.950668 
	C39.530094,45.207397 39.508778,45.152500 39.465477,44.855408 
	C39.362492,44.386845 39.302799,44.215374 39.232246,43.686020 
	C39.437737,42.209309 39.654091,41.090481 40.253727,39.959106 
	C40.892204,39.931042 41.147392,39.915535 41.402584,39.900032 
z"/>
<path fill="#C60517" opacity="1.000000" stroke="none" 
	d="
M40.820969,47.432655 
	C39.333981,47.651482 37.557880,47.712143 35.227455,47.682938 
	C34.372875,47.518250 34.133633,47.354382 33.967770,46.846249 
	C33.988403,46.420891 33.996674,46.250748 34.294495,46.072624 
	C34.777092,46.059963 34.970139,46.055286 35.264549,46.248009 
	C35.491600,46.732059 35.697884,46.938099 35.984768,47.063526 
	C37.500462,47.133850 39.016159,47.204170 40.820969,47.432655 
z"/>
<path fill="#869D9C" opacity="1.000000" stroke="none" 
	d="
M39.243111,44.043903 
	C39.302799,44.215374 39.362492,44.386845 39.460728,44.826347 
	C38.627197,45.257359 37.755116,45.420334 36.406841,45.461349 
	C35.930645,45.339394 35.755901,45.095909 35.821404,44.755356 
	C35.958195,43.957878 36.029488,43.500950 36.337486,43.143124 
	C37.027134,43.484394 37.480076,43.726562 38.260719,43.991348 
	C38.806652,44.023949 39.024883,44.033928 39.243111,44.043903 
z"/>
<path fill="#CE161B" opacity="1.000000" stroke="none" 
	d="
M35.163189,46.050606 
	C34.970139,46.055286 34.777092,46.059963 34.290649,46.052040 
	C33.997257,46.039440 33.995525,46.000664 33.998787,45.744957 
	C34.009911,45.318947 34.017769,45.148643 34.315716,44.960289 
	C34.989174,44.993458 35.372536,45.044682 35.755901,45.095909 
	C35.755901,45.095909 35.930645,45.339394 35.959835,45.486511 
	C35.989025,45.633633 35.851475,45.849411 35.622330,45.931164 
	C35.393188,46.012917 35.163189,46.050606 35.163189,46.050606 
z"/>
<path fill="#B64349" opacity="1.000000" stroke="none" 
	d="
M35.264549,46.248009 
	C35.163189,46.050606 35.393188,46.012917 35.503563,45.978745 
	C35.639557,46.143028 35.665176,46.341484 35.837784,46.801735 
	C35.697884,46.938099 35.491600,46.732059 35.264549,46.248009 
z"/>
<path fill="#631F38" opacity="1.000000" stroke="none" 
	d="
M9.436474,57.004707 
	C8.998679,56.510437 8.999166,56.079163 8.999445,55.324326 
	C12.028463,55.000805 15.057690,55.000847 18.540499,54.999657 
	C16.718168,59.054527 12.898393,56.306816 9.436474,57.004707 
z"/>
<path fill="#EED88D" opacity="1.000000" stroke="none" 
	d="
M33.955410,47.101467 
	C34.133633,47.354382 34.372875,47.518250 34.843616,47.735523 
	C35.013832,48.058807 35.013565,48.239643 35.016834,48.691292 
	C33.560604,49.033169 32.100842,49.104233 30.192223,49.247047 
	C29.743370,49.318798 29.790947,49.253578 29.787643,48.942871 
	C29.737236,48.430443 29.690132,48.228722 29.774906,47.923878 
	C29.906784,47.820755 30.200310,47.659672 30.477953,47.627785 
	C31.276983,47.438606 31.798370,47.281311 32.587345,47.226116 
	C33.221760,47.252636 33.588585,47.177052 33.955410,47.101467 
z"/>
<path fill="#F7C678" opacity="1.000000" stroke="none" 
	d="
M38.780209,16.865482 
	C39.269901,17.135702 39.269104,17.333044 39.306225,18.026279 
	C39.416790,18.833208 39.612926,18.990726 39.932552,18.994730 
	C39.932552,18.994730 39.955578,19.015377 39.797222,19.183907 
	C39.638866,19.352436 39.423889,19.796209 39.185585,19.856346 
	C38.642048,20.055048 38.321922,20.118513 37.918018,19.730820 
	C36.232967,18.905514 34.616787,18.456263 32.625465,18.003139 
	C31.500196,17.999645 30.750071,18.000023 29.999943,18.000401 
	C27.629709,18.001371 25.259474,18.002344 22.108484,18.005840 
	C20.551046,18.339743 19.774363,18.671118 19.006790,19.281773 
	C19.030552,19.746759 19.045204,19.932468 19.094311,20.107075 
	C19.128765,20.095972 19.157585,20.162390 18.847834,19.979221 
	C17.030205,19.202658 15.522326,18.609261 14.007795,17.729984 
	C13.996439,17.253521 13.991734,17.062939 13.987029,16.872358 
	C22.087927,16.845774 30.188824,16.819189 38.780209,16.865482 
z"/>
<path fill="#8690BC" opacity="1.000000" stroke="none" 
	d="
M12.811000,16.749931 
	C12.525085,16.810652 12.134964,16.695854 11.477283,16.433434 
	C11.708746,16.382013 12.207769,16.478216 12.811000,16.749931 
z"/>
<path fill="#ECD08A" opacity="1.000000" stroke="none" 
	d="
M13.722322,16.855261 
	C13.991734,17.062939 13.996439,17.253521 13.873960,17.951061 
	C13.464216,18.650099 13.181654,18.842176 12.899092,19.034256 
	C12.864038,18.580400 12.828987,18.126545 12.874090,17.339195 
	C13.122035,16.949852 13.289824,16.894009 13.722322,16.855261 
z"/>
<path fill="#F7C37B" opacity="1.000000" stroke="none" 
	d="
M34.947979,38.996292 
	C34.624142,34.271271 34.300304,29.546247 33.977077,24.373056 
	C33.977684,23.924887 33.925346,23.980360 34.175510,23.819231 
	C34.619400,23.109299 34.813126,22.560497 35.293243,22.023361 
	C35.770638,22.040638 35.961639,22.046253 36.058189,22.370186 
	C35.944084,23.129196 35.924435,23.569885 35.919765,24.376556 
	C36.599812,25.345367 37.264874,25.948200 37.812607,26.965242 
	C37.694080,31.048414 37.692890,34.717377 37.467842,38.254013 
	C36.746674,38.060165 36.249367,37.998642 35.585480,38.085953 
	C35.227333,38.467220 35.070358,38.721054 34.947979,38.996292 
z"/>
<path fill="#000000" opacity="1.000000" stroke="none" 
	d="
M23.186831,37.948124 
	C22.418184,36.236786 22.095316,34.566486 21.677881,32.406979 
	C24.579704,32.406979 26.929092,32.406979 29.315453,32.406979 
	C30.602140,37.851578 30.459539,37.995430 23.186831,37.948124 
z"/>
<path fill="#E9BC7E" opacity="1.000000" stroke="none" 
	d="
M12.807234,19.440487 
	C13.181654,18.842176 13.464216,18.650099 13.880613,18.236942 
	C15.522326,18.609261 17.030205,19.202658 18.658150,20.248484 
	C18.619440,21.757736 18.460663,22.814560 18.301884,23.871384 
	C16.787592,23.914207 15.273299,23.957031 13.302771,23.999596 
	C12.802815,22.615133 12.759095,21.230925 12.807234,19.440487 
z"/>
<path fill="#000000" opacity="1.000000" stroke="none" 
	d="
M33.947891,23.901087 
	C31.812771,24.072227 29.374821,24.723745 30.443954,20.661674 
	C31.551401,20.207623 32.285229,20.166016 33.150723,20.300278 
	C33.495251,20.679873 33.730267,20.853626 33.952251,21.369335 
	C33.919827,22.487629 33.922588,23.233994 33.925346,23.980360 
	C33.925346,23.980360 33.977684,23.924887 33.947891,23.901087 
z"/>
<path fill="#000000" opacity="1.000000" stroke="none" 
	d="
M18.700306,23.960236 
	C18.460663,22.814560 18.619440,21.757736 18.967903,20.431652 
	C19.157585,20.162390 19.128765,20.095972 19.449520,20.161028 
	C20.489731,20.230661 21.209185,20.235241 21.928640,20.239819 
	C22.243608,22.444347 22.997261,24.974775 18.700306,23.960236 
z"/>
<path fill="#9080AE" opacity="1.000000" stroke="none" 
	d="
M20.665056,51.083553 
	C20.561111,48.939682 20.457169,46.795807 20.378971,44.177197 
	C20.790432,43.734535 21.176146,43.766613 21.876659,44.107967 
	C22.254719,44.587299 22.317978,44.757351 22.315536,45.319462 
	C22.305050,46.500317 22.360264,47.289116 22.354294,48.431320 
	C22.209661,49.008732 22.126215,49.232742 22.174923,49.597847 
	C22.307079,49.738941 22.137053,50.086189 22.137054,50.086189 
	C21.854322,50.282078 21.571592,50.477966 21.046656,50.882233 
	C20.804449,51.090614 20.665056,51.083553 20.665056,51.083553 
z"/>
<path fill="#BDD3EF" opacity="1.000000" stroke="none" 
	d="
M24.118877,45.718170 
	C25.816042,45.144348 27.513206,44.570530 29.581757,44.241291 
	C30.015051,44.661011 30.076960,44.836143 30.078125,45.250576 
	C30.017378,45.489876 30.109005,45.974567 30.034670,46.259850 
	C30.058542,46.715366 30.156752,46.885609 30.231983,47.205963 
	C30.209003,47.356075 30.200310,47.659672 30.200310,47.659672 
	C30.200310,47.659672 29.906784,47.820755 29.497564,47.911190 
	C28.716490,47.984833 28.344635,47.968040 27.731174,47.697769 
	C26.328062,47.295681 25.166552,47.147076 24.024769,46.677620 
	C24.069288,46.143902 24.094084,45.931034 24.118877,45.718170 
z"/>
<path fill="#B64349" opacity="1.000000" stroke="none" 
	d="
M35.821404,44.755356 
	C35.372536,45.044682 34.989174,44.993458 34.319939,44.960285 
	C34.034073,44.978336 34.055031,44.955132 34.065983,44.586891 
	C34.050861,43.974434 34.024784,43.730217 33.921989,43.304764 
	C33.845272,43.123528 33.682888,42.764977 33.682888,42.764977 
	C34.136917,41.792500 34.590946,40.820023 35.454651,39.897327 
	C35.864323,39.947105 36.028625,40.004612 36.037392,40.241333 
	C36.046158,40.478050 36.112877,40.947094 36.063385,41.295113 
	C36.042854,42.110096 36.071815,42.577057 36.100780,43.044022 
	C36.029488,43.500950 35.958195,43.957878 35.821404,44.755356 
z"/>
<path fill="#8D8F8F" opacity="1.000000" stroke="none" 
	d="
M36.337486,43.143124 
	C36.071815,42.577057 36.042854,42.110096 36.202126,41.201332 
	C36.269787,40.507893 36.149204,40.256252 36.028625,40.004612 
	C36.028625,40.004612 35.864323,39.947105 35.813965,39.872871 
	C35.763603,39.798641 35.764637,39.451103 35.808441,38.985634 
	C35.818855,38.325813 35.785458,38.131470 35.752056,37.937122 
	C36.249367,37.998642 36.746674,38.060165 37.563698,38.733528 
	C37.899944,40.886486 37.916481,42.427608 37.933018,43.968731 
	C37.480076,43.726562 37.027134,43.484394 36.337486,43.143124 
z"/>
<path fill="#CCDDEA" opacity="1.000000" stroke="none" 
	d="
M24.091030,45.431770 
	C24.094084,45.931034 24.069288,46.143902 24.026474,46.914951 
	C24.008453,47.473133 24.024275,47.947498 23.755091,47.965576 
	C23.129097,48.015076 22.772287,48.046494 22.415478,48.077911 
	C22.360264,47.289116 22.305050,46.500317 22.463650,45.177773 
	C22.850122,44.418697 22.969181,44.167896 23.034641,43.891613 
	C23.377487,44.309532 23.720335,44.727451 24.091030,45.431770 
z"/>
<path fill="#EABC7E" opacity="1.000000" stroke="none" 
	d="
M30.000074,18.252827 
	C30.750071,18.000023 31.500196,17.999645 32.626549,18.243507 
	C33.002777,18.487743 33.008949,18.968613 32.633389,18.980030 
	C31.506618,18.997663 30.755411,19.003878 30.004202,19.010092 
	C30.002871,18.841814 30.001539,18.673534 30.000074,18.252827 
z"/>
<path fill="#EABC7E" opacity="1.000000" stroke="none" 
	d="
M18.997679,19.002493 
	C19.774363,18.671118 20.551046,18.339743 21.664398,18.008011 
	C22.001068,18.007652 22.000027,18.504795 21.624537,18.752533 
	C20.498590,19.001011 19.748135,19.001751 18.997679,19.002493 
z"/>
<path fill="#FFD791" opacity="1.000000" stroke="none" 
	d="
M19.006790,19.281773 
	C19.748135,19.001751 20.498590,19.001011 21.624163,19.001104 
	C21.989338,19.208345 21.979397,19.414755 21.949047,19.930492 
	C21.209185,20.235241 20.489731,20.230661 19.415066,20.172131 
	C19.045204,19.932468 19.030552,19.746759 19.006790,19.281773 
z"/>
<path fill="#FFD791" opacity="1.000000" stroke="none" 
	d="
M30.023098,19.328407 
	C30.755411,19.003878 31.506618,18.997663 32.637657,19.269138 
	C33.018005,19.739353 33.018532,19.931881 33.019054,20.124409 
	C32.285229,20.166016 31.551401,20.207623 30.450174,20.266201 
	C30.069180,20.071024 30.055588,19.858873 30.023098,19.328407 
z"/>
<path fill="#CE161B" opacity="1.000000" stroke="none" 
	d="
M30.138870,45.011276 
	C30.076960,44.836143 30.015051,44.661011 29.933941,44.207176 
	C30.395752,43.823185 30.876760,43.717896 31.685585,43.707359 
	C32.013397,43.802113 31.980032,44.057991 31.979742,44.297462 
	C31.979452,44.536930 31.977896,45.016182 31.735458,45.010399 
	C31.493023,45.004612 31.008034,44.999962 30.790730,45.001865 
	C30.573427,45.003769 30.138870,45.011276 30.138870,45.011276 
z"/>
<path fill="#DC7A5A" opacity="1.000000" stroke="none" 
	d="
M33.472607,42.842964 
	C33.682888,42.764977 33.845272,43.123528 33.606163,43.464050 
	C32.904709,43.889046 32.442371,43.973518 31.980032,44.057991 
	C31.980032,44.057991 32.013397,43.802113 32.055626,43.679890 
	C32.486008,43.345428 32.874168,43.133186 33.472607,42.842964 
z"/>
<path fill="#C9AC83" opacity="1.000000" stroke="none" 
	d="
M35.585480,38.085953 
	C35.785458,38.131470 35.818855,38.325813 35.798737,38.812134 
	C35.745224,39.104107 35.348148,39.042534 35.148064,39.019413 
	C35.070358,38.721054 35.227333,38.467220 35.585480,38.085953 
z"/>
<path fill="#C5D1E2" opacity="1.000000" stroke="none" 
	d="
M22.810507,43.878468 
	C22.969181,44.167896 22.850122,44.418697 22.529348,44.785713 
	C22.317978,44.757351 22.254719,44.587299 22.164434,44.145386 
	C22.137409,43.873528 22.586372,43.865322 22.810507,43.878468 
z"/>
<path fill="#5D142B" opacity="1.000000" stroke="none" 
	d="
M15.657307,41.783035 
	C14.202935,42.041637 12.308629,42.238697 10.159091,42.144844 
	C11.675031,41.809780 13.446200,41.765636 15.657307,41.783035 
z"/>
<path fill="#385251" opacity="1.000000" stroke="none" 
	d="
M39.423889,19.796209 
	C39.423889,19.796209 39.638866,19.352436 39.805832,19.171091 
	C40.175968,18.907198 40.379135,18.824652 40.911232,19.132305 
	C41.299782,19.721079 41.359398,19.919653 41.419014,20.118227 
	C41.378742,26.406412 41.338470,32.694599 41.350391,39.441406 
	C41.147392,39.915535 40.892204,39.931042 40.222332,39.493881 
	C39.679729,32.626209 39.551811,26.211210 39.423889,19.796209 
z"/>
<path fill="#9A373B" opacity="1.000000" stroke="none" 
	d="
M41.531914,19.968187 
	C41.359398,19.919653 41.299782,19.721079 41.230515,19.211454 
	C41.362179,19.206316 41.503498,19.512232 41.531914,19.968187 
z"/>
<path fill="#999999" opacity="1.000000" stroke="none" 
	d="
M39.835510,18.743307 
	C39.612926,18.990726 39.416790,18.833208 39.335754,18.320816 
	C39.327366,18.119461 39.340824,18.092173 39.353920,18.096745 
	C39.490837,18.231506 39.614655,18.361694 39.835510,18.743307 
z"/>
<path fill="#000000" opacity="1.000000" stroke="none" 
	d="
M22.166534,50.304390 
	C22.137053,50.086189 22.307079,49.738941 22.601963,49.521149 
	C25.194880,49.286762 27.492914,49.270172 29.790947,49.253578 
	C29.790947,49.253578 29.743370,49.318798 29.767103,49.352142 
	C29.838642,49.740986 29.886448,50.096478 29.916569,50.722900 
	C28.229422,51.065823 26.559961,51.137810 24.202389,51.179337 
	C23.326181,51.153976 23.138084,51.159073 22.949989,51.164169 
	C22.949989,51.164169 22.620777,51.047260 22.453484,51.000450 
	C22.286192,50.953636 22.196016,50.522594 22.166534,50.304390 
z"/>
<path fill="#48182B" opacity="1.000000" stroke="none" 
	d="
M23.053326,51.308315 
	C23.138084,51.159073 23.326181,51.153976 23.786980,51.222679 
	C23.758675,51.348476 23.457666,51.400467 23.053326,51.308315 
z"/>
<path fill="#A099C7" opacity="1.000000" stroke="none" 
	d="
M20.567467,51.318962 
	C20.665056,51.083553 20.804449,51.090614 20.870178,51.072334 
	C20.863066,51.454987 20.790226,51.855923 20.584671,52.410450 
	C20.457930,52.227486 20.463903,51.890926 20.567467,51.318962 
z"/>
<path fill="#999999" opacity="1.000000" stroke="none" 
	d="
M39.185585,19.856346 
	C39.551811,26.211210 39.679729,32.626209 39.839046,39.506432 
	C39.654091,41.090481 39.437737,42.209309 39.232246,43.686020 
	C39.024883,44.033928 38.806652,44.023949 38.260719,43.991348 
	C37.916481,42.427608 37.899944,40.886486 37.787552,38.865852 
	C37.692890,34.717377 37.694080,31.048414 37.821266,26.569965 
	C37.634254,24.834799 37.321255,23.909117 37.009792,22.781849 
	C37.011326,22.580259 37.035213,22.177782 37.093483,21.887741 
	C37.430138,21.100760 37.708515,20.603817 37.986893,20.106874 
	C38.321922,20.118513 38.642048,20.055048 39.185585,19.856346 
z"/>
<path fill="#C50013" opacity="1.000000" stroke="none" 
	d="
M33.967770,46.846249 
	C33.588585,47.177052 33.221760,47.252636 32.327854,47.174839 
	C31.627001,46.998058 31.453232,46.974659 31.171772,46.722439 
	C31.044739,46.327011 31.025398,46.160408 31.003151,45.996773 
	C31.000244,45.999748 30.998363,46.001644 31.373381,45.999962 
	C32.497440,45.999077 33.246483,45.999870 33.995525,46.000664 
	C33.995525,46.000664 33.997257,46.039440 34.001102,46.060020 
	C33.996674,46.250748 33.988403,46.420891 33.967770,46.846249 
z"/>
<path fill="#CB2228" opacity="1.000000" stroke="none" 
	d="
M33.998787,45.744957 
	C33.246483,45.999870 32.497440,45.999077 31.371544,45.749462 
	C30.999138,45.333752 31.003586,45.166859 31.008034,44.999962 
	C31.008034,44.999962 31.493023,45.004612 32.081917,45.002861 
	C33.132214,44.985779 33.593624,44.970455 34.055031,44.955132 
	C34.055031,44.955132 34.034073,44.978336 34.029846,44.978340 
	C34.017769,45.148643 34.009911,45.318947 33.998787,45.744957 
z"/>
<path fill="#DFEEFF" opacity="1.000000" stroke="none" 
	d="
M29.787643,48.942871 
	C27.492914,49.270172 25.194880,49.286762 22.469807,49.380054 
	C22.126215,49.232742 22.209661,49.008732 22.354294,48.431320 
	C22.772287,48.046494 23.129097,48.015076 24.149670,47.984169 
	C25.866550,47.973537 26.919664,47.962391 27.972780,47.951248 
	C28.344635,47.968040 28.716490,47.984833 29.365685,48.014313 
	C29.690132,48.228722 29.737236,48.430443 29.787643,48.942871 
z"/>
<path fill="#C60517" opacity="1.000000" stroke="none" 
	d="
M31.279465,46.951260 
	C31.453232,46.974659 31.627001,46.998058 32.060265,47.072739 
	C31.798370,47.281311 31.276983,47.438606 30.477953,47.627785 
	C30.200310,47.659672 30.209003,47.356075 30.489645,47.195610 
	C30.940012,47.007187 31.109739,46.979225 31.279465,46.951260 
z"/>
<path fill="#E9BC7E" opacity="1.000000" stroke="none" 
	d="
M37.918018,19.730820 
	C37.708515,20.603817 37.430138,21.100760 36.872852,21.854828 
	C36.593948,22.111956 36.152641,22.051867 36.152641,22.051867 
	C35.961639,22.046253 35.770638,22.040638 35.179886,21.803123 
	C34.572304,21.302042 34.308067,21.110771 33.987438,20.997410 
	C33.730267,20.853626 33.495251,20.679873 33.150723,20.300278 
	C33.018532,19.931881 33.018005,19.739353 33.013214,19.257721 
	C33.008949,18.968613 33.002777,18.487743 33.001694,18.247377 
	C34.616787,18.456263 36.232967,18.905514 37.918018,19.730820 
z"/>
<path fill="#828890" opacity="1.000000" stroke="none" 
	d="
M37.008259,22.983437 
	C37.321255,23.909117 37.634254,24.834799 37.938599,26.155756 
	C37.264874,25.948200 36.599812,25.345367 36.152313,24.262144 
	C36.582672,23.515648 36.795467,23.249542 37.008259,22.983437 
z"/>
<path fill="#FFD68C" opacity="1.000000" stroke="none" 
	d="
M33.952251,21.369335 
	C34.308067,21.110771 34.572304,21.302042 34.893497,21.791458 
	C34.813126,22.560497 34.619400,23.109299 34.175510,23.819231 
	C33.922588,23.233994 33.919827,22.487629 33.952251,21.369335 
z"/>
<path fill="#8D8D8E" opacity="1.000000" stroke="none" 
	d="
M37.009792,22.781849 
	C36.795467,23.249542 36.582672,23.515648 36.137333,23.896164 
	C35.924435,23.569885 35.944084,23.129196 36.058189,22.370186 
	C36.152641,22.051867 36.593948,22.111956 36.814583,22.144869 
	C37.035213,22.177782 37.011326,22.580259 37.009792,22.781849 
z"/>
<path fill="#C5D1E2" opacity="1.000000" stroke="none" 
	d="
M27.731174,47.697769 
	C26.919664,47.962391 25.866550,47.973537 24.418854,47.966091 
	C24.024275,47.947498 24.008453,47.473133 24.006748,47.235802 
	C25.166552,47.147076 26.328062,47.295681 27.731174,47.697769 
z"/>
<path fill="#C50013" opacity="1.000000" stroke="none" 
	d="
M30.790730,45.001865 
	C31.003586,45.166859 30.999138,45.333752 30.996527,45.751144 
	C30.998363,46.001644 31.000244,45.999748 30.778824,45.993530 
	C30.557402,45.987309 30.109005,45.974567 30.109005,45.974567 
	C30.109005,45.974567 30.017378,45.489876 30.078125,45.250576 
	C30.138870,45.011276 30.573427,45.003769 30.790730,45.001865 
z"/>
<path fill="#CB2228" opacity="1.000000" stroke="none" 
	d="
M30.034670,46.259850 
	C30.109005,45.974567 30.557402,45.987309 30.781729,45.990555 
	C31.025398,46.160408 31.044739,46.327011 31.171772,46.722439 
	C31.109739,46.979225 30.940012,47.007187 30.512623,47.045502 
	C30.156752,46.885609 30.058542,46.715366 30.034670,46.259850 
z"/>
<path fill="#C60517" opacity="1.000000" stroke="none" 
	d="
M34.065983,44.586891 
	C33.593624,44.970455 33.132214,44.985779 32.324352,45.008644 
	C31.977896,45.016182 31.979452,44.536930 31.979742,44.297459 
	C32.442371,43.973518 32.904709,43.889046 33.682877,43.645287 
	C34.024784,43.730217 34.050861,43.974434 34.065983,44.586891 
z"/>
<path fill="#869D9C" opacity="1.000000" stroke="none" 
	d="
M36.037392,40.241333 
	C36.149204,40.256252 36.269787,40.507893 36.251621,40.853313 
	C36.112877,40.947094 36.046158,40.478050 36.037392,40.241333 
z"/>
</svg>